<?xml version="1.0" standalone="no"?>
<!DOCTYPE svg PUBLIC "-//W3C//DTD SVG 1.1//EN" "http://www.w3.org/Graphics/SVG/1.1/DTD/svg11.dtd" >
<svg xmlns="http://www.w3.org/2000/svg" xmlns:xlink="http://www.w3.org/1999/xlink" version="1.1">
<metadata>
Created by FontForge 20161116 at Thu Feb  7 14:41:38 2002
 By Jimmy Wärting
Copyright 1988, 1994 , 2002Adobe Systems Incorporated. All Rights Reserved. ITC Kabel is a registered trademark of International Typeface Corporation.
</metadata>
<defs>
<font id="ITCKabelStd-Book" horiz-adv-x="500" >
  <font-face 
    font-family="ITC Kabel Std"
    font-weight="400"
    font-stretch="normal"
    units-per-em="1000"
    panose-1="2 13 4 2 2 2 4 2 9 4"
    ascent="724"
    descent="-276"
    x-height="502"
    cap-height="702"
    bbox="-167 -250 1000 924"
    underline-thickness="50"
    underline-position="-100"
    stemh="58"
    stemv="58"
    unicode-range="U+0020-FB02"
  />
<missing-glyph 
d="M0 0v700h500v-700h-500zM250 395l170 255h-340zM280 350l170 -255v510zM80 50h340l-170 255zM50 605v-510l170 255z" />
    <glyph glyph-name="fi" unicode="fi" 
d="M37 502h54v52c0 147 90 169 193 169l15 -58c-136 -1 -150 -24 -150 -123v-40h143v-58h-143v-444l-58 -12v456h-68zM429 0l-58 -12v514l58 12v-514zM400 723l46 -52l-46 -52l-46 52z" />
    <glyph glyph-name="fl" unicode="fl" 
d="M37 502h54v52c0 147 90 169 193 169l15 -58c-136 -1 -150 -24 -150 -123v-40h143v-58h-143v-444l-58 -12v456h-68zM429 723v-723l-58 -12v723z" />
    <glyph glyph-name=".notdef" 
d="M0 0v700h500v-700h-500zM250 395l170 255h-340zM280 350l170 -255v510zM80 50h340l-170 255zM50 605v-510l170 255z" />
    <glyph glyph-name="space" unicode=" " horiz-adv-x="250" 
 />
    <glyph glyph-name="exclam" unicode="!" horiz-adv-x="222" 
d="M148 723l-10 -547l-57 -6v542zM53 53l52 59l52 -59l-52 -59z" />
    <glyph glyph-name="quotedbl" unicode="&#x22;" horiz-adv-x="333" 
d="M78 415v271h58v-271h-58zM198 415v271h58v-271h-58z" />
    <glyph glyph-name="numbersign" unicode="#" 
d="M463 270l-3 -52h-100l-31 -218h-58l31 218h-129l-30 -218h-59l31 218h-106l3 52h110l20 145h-105l3 52h109l31 219h58l-31 -219h129l30 219h59l-31 -219h97l-3 -52h-101l-21 -145h97zM329 415h-129l-20 -145h129z" />
    <glyph glyph-name="dollar" unicode="$" 
d="M255 98v225c-92 15 -162 61 -162 160c0 93 72 153 162 157v67l44 16v-83c54 -6 109 -29 145 -71l-33 -36c-30 30 -68 53 -112 55v-213c83 -12 162 -64 162 -158c0 -100 -69 -158 -162 -171v-101l-44 -9v110c-68 3 -134 37 -175 91l42 36c31 -42 81 -72 133 -75zM255 381
v207c-67 -2 -108 -33 -108 -100c0 -69 43 -101 108 -107zM299 317v-219c65 5 108 39 108 108s-45 103 -108 111z" />
    <glyph glyph-name="percent" unicode="%" horiz-adv-x="833" 
d="M433 170c0 94 76 171 171 171c94 0 171 -77 171 -171c0 -95 -77 -170 -171 -170c-95 0 -171 75 -171 170zM727 170c0 67 -56 123 -123 123c-68 0 -123 -56 -123 -123c0 -68 55 -122 123 -122c67 0 123 54 123 122zM579 686h51l-397 -702h-49l337 580l-2 2
c-32 -19 -45 -26 -85 -26c-18 0 -41 8 -55 19l-2 -2c5 -12 7 -27 7 -43c0 -94 -77 -171 -171 -171c-95 0 -171 77 -171 171s76 172 171 172c49 0 93 -21 123 -54c28 -24 63 -56 109 -56c60 0 103 61 134 110zM336 514c0 68 -56 124 -123 124c-68 0 -123 -56 -123 -124
s55 -123 123 -123c67 0 123 55 123 123z" />
    <glyph glyph-name="ampersand" unicode="&#x26;" horiz-adv-x="611" 
d="M274 384l144 -176l125 122l39 -38l-128 -125l120 -147l-47 -28l-113 136c-60 -55 -116 -136 -206 -136c-97 0 -170 70 -170 169c0 97 68 145 133 207l26 26c-37 45 -68 98 -68 158c0 92 60 150 149 150c68 0 135 -51 135 -124c0 -85 -86 -140 -139 -194zM380 172
l-149 178c-55 -60 -135 -101 -135 -192c0 -62 49 -108 111 -108c71 0 124 81 173 122zM241 425c45 37 114 84 114 155c0 41 -38 70 -82 70c-60 0 -86 -46 -86 -100c0 -46 27 -97 54 -125z" />
    <glyph glyph-name="quoteright" unicode="&#x2019;" horiz-adv-x="222" 
d="M96 489l-34 20c13 20 55 73 55 96c0 20 -21 35 -36 43l43 54c26 -17 54 -39 54 -72c0 -48 -57 -103 -82 -141z" />
    <glyph glyph-name="parenleft" unicode="(" horiz-adv-x="333" 
d="M258 702l16 -48c-131 -96 -208 -213 -208 -380c0 -165 76 -290 214 -377l-24 -44c-150 96 -243 243 -243 424c0 182 93 329 245 425z" />
    <glyph glyph-name="parenright" unicode=")" horiz-adv-x="333" 
d="M75 -147l-16 48c131 96 208 213 208 380c0 165 -76 290 -214 377l24 44c150 -96 243 -243 243 -424c0 -182 -93 -329 -245 -425z" />
    <glyph glyph-name="asterisk" unicode="*" horiz-adv-x="444" 
d="M68 630l129 -74v135l47 11v-147l119 70l34 -36l-136 -74l129 -68l-15 -44l-131 76v-140l-47 -12v152l-120 -71l-30 35l132 76l-125 67z" />
    <glyph glyph-name="plus" unicode="+" horiz-adv-x="600" 
d="M271 280v222h58v-222h222v-58h-222v-222h-58v222h-222v58h222z" />
    <glyph glyph-name="comma" unicode="," horiz-adv-x="250" 
d="M30 -184l84 256l75 11l-103 -267h-56z" />
    <glyph glyph-name="hyphen" unicode="-" horiz-adv-x="333" 
d="M294 278v-54h-255v54h255z" />
    <glyph glyph-name="period" unicode="." horiz-adv-x="250" 
d="M73 53l52 59l52 -59l-52 -59z" />
    <glyph glyph-name="slash" unicode="/" horiz-adv-x="278" 
d="M279 702l-229 -718h-50l229 718h50z" />
    <glyph glyph-name="zero" unicode="0" 
d="M31 343c0 123 58 359 219 359s219 -236 219 -359s-58 -359 -219 -359s-219 236 -219 359zM95 343c0 -88 38 -301 155 -301s155 213 155 301s-38 301 -155 301s-155 -213 -155 -301z" />
    <glyph glyph-name="one" unicode="1" 
d="M259 -8v630l-179 -100l-18 43l259 158h2v-723z" />
    <glyph glyph-name="two" unicode="2" 
d="M29 0l213 224c70 74 163 153 163 263c0 93 -66 157 -158 157c-86 0 -153 -64 -153 -152c0 -94 61 -154 151 -168l-40 -49c-102 17 -175 107 -175 210c0 123 93 217 215 217c133 0 224 -97 224 -229c0 -82 -68 -168 -122 -223l-188 -192h306l-10 -58h-426z" />
    <glyph glyph-name="three" unicode="3" 
d="M169 337v53c89 -4 199 16 199 125c0 80 -57 129 -132 129c-66 0 -112 -32 -154 -80l-41 40c62 63 106 98 197 98c105 0 194 -68 194 -178c0 -74 -43 -127 -109 -157c79 -30 128 -97 128 -181c0 -126 -104 -202 -223 -202c-88 0 -167 52 -205 131l52 33
c29 -62 82 -106 152 -106c90 0 160 51 160 150c0 122 -103 144 -218 145z" />
    <glyph glyph-name="four" unicode="4" 
d="M358 250h118l-10 -58h-108v-192l-64 -8v200h-293l355 531h2v-473zM98 250h196v301h-2z" />
    <glyph glyph-name="five" unicode="5" 
d="M16 87l45 41c42 -51 95 -86 163 -86c95 0 166 75 166 169c0 98 -72 170 -169 170c-57 0 -92 -17 -140 -48v353h326l-15 -58h-247v-207c28 12 57 18 88 18c123 0 221 -104 221 -226c0 -143 -110 -229 -229 -229c-89 0 -171 39 -209 103z" />
    <glyph glyph-name="six" unicode="6" 
d="M97 225c0 -101 68 -183 162 -183c98 0 147 101 147 198c0 98 -52 184 -153 184c-107 0 -156 -99 -156 -199zM312 723l44 -37c-79 -72 -157 -154 -209 -250l2 -2c32 23 70 42 111 42c129 0 210 -119 210 -243c0 -141 -90 -249 -214 -249c-138 0 -223 118 -223 254
c0 172 153 387 279 485z" />
    <glyph glyph-name="seven" unicode="7" 
d="M471 686l-258 -686l-69 -8l243 636h-352l11 58h425z" />
    <glyph glyph-name="eight" unicode="8" 
d="M113 504c0 -80 71 -120 144 -120c75 0 132 51 132 127c0 83 -57 133 -134 133c-83 0 -142 -50 -142 -140zM30 191c0 78 60 150 134 168v2c-64 13 -115 83 -115 148c0 118 80 193 195 193c110 0 209 -66 209 -185c0 -72 -47 -128 -111 -156c76 -28 128 -93 128 -176
c0 -125 -103 -201 -219 -201c-122 0 -221 78 -221 207zM94 178c0 -83 79 -136 152 -136c86 0 160 54 160 149c0 87 -73 141 -156 141c-96 0 -156 -59 -156 -154z" />
    <glyph glyph-name="nine" unicode="9" 
d="M95 446c0 -98 53 -184 154 -184c107 0 155 98 155 198c0 103 -68 184 -161 184c-98 0 -148 -101 -148 -198zM190 -37l-44 37c79 72 156 153 209 250l-2 2c-32 -23 -70 -42 -111 -42c-129 0 -211 118 -211 243c0 141 91 249 215 249c138 0 222 -118 222 -254
c0 -172 -152 -387 -278 -485z" />
    <glyph glyph-name="colon" unicode=":" horiz-adv-x="250" 
d="M73 53l52 59l52 -59l-52 -59zM73 313l52 59l52 -59l-52 -59z" />
    <glyph glyph-name="semicolon" unicode=";" horiz-adv-x="250" 
d="M-2 -184l82 256l75 11l-103 -267h-54zM73 313l52 59l52 -59l-52 -59z" />
    <glyph glyph-name="less" unicode="&#x3c;" horiz-adv-x="600" 
d="M554 54v-62l-508 232v54l508 232v-62l-436 -197z" />
    <glyph glyph-name="equal" unicode="=" horiz-adv-x="600" 
d="M551 379v-58h-502v58h502zM551 181v-58h-502v58h502z" />
    <glyph glyph-name="greater" unicode="&#x3e;" horiz-adv-x="600" 
d="M46 54l436 197l-436 197v62l508 -232v-54l-508 -232v62z" />
    <glyph glyph-name="question" unicode="?" horiz-adv-x="444" 
d="M258 197l-48 -12v122c0 109 149 83 149 232c0 69 -57 126 -127 126c-85 0 -119 -40 -154 -111l-50 27c38 84 97 142 194 142c108 0 195 -83 195 -192c0 -164 -159 -147 -159 -267v-67zM188 53l52 59l52 -59l-52 -59z" />
    <glyph glyph-name="at" unicode="@" horiz-adv-x="800" 
d="M262 281c0 -61 36 -101 84 -101c89 0 157 138 157 224c0 50 -38 97 -78 97c-96 0 -163 -129 -163 -220zM534 473l23 62h56l-89 -278c-13 -40 -19 -80 12 -80c74 0 148 125 148 224c0 154 -124 249 -267 249c-174 0 -301 -141 -301 -311c0 -168 134 -303 304 -303
c95 0 191 46 248 122h55c-60 -109 -180 -174 -303 -174c-204 0 -362 161 -362 362c0 197 164 356 357 356c180 0 327 -125 327 -298c0 -157 -127 -276 -223 -276c-33 0 -60 21 -63 63h-2c-30 -31 -75 -63 -123 -63c-82 0 -134 66 -134 147c0 133 92 278 230 278
c45 0 84 -23 107 -80z" />
    <glyph glyph-name="A" unicode="A" horiz-adv-x="667" 
d="M483 270h-294l-139 -286l-66 16l349 702h2l349 -702l-60 -14zM448 332l-114 229l-115 -229h229z" />
    <glyph glyph-name="B" unicode="B" 
d="M68 686h174c117 0 194 -55 194 -180c0 -73 -32 -122 -90 -151c75 -37 110 -86 110 -169c0 -119 -70 -186 -216 -186h-172v686zM130 317v-255h105c123 0 153 58 153 124c0 76 -47 131 -133 131h-125zM130 624v-245h94c100 0 150 48 150 126c0 77 -55 119 -124 119h-120z
" />
    <glyph glyph-name="C" unicode="C" horiz-adv-x="556" 
d="M514 92l-9 -76c-39 -18 -86 -32 -129 -32c-187 0 -350 155 -350 359s163 359 350 359c43 0 90 -14 129 -32l9 -76c-28 22 -84 46 -143 46c-158 0 -277 -133 -277 -297s119 -297 277 -297c64 0 115 24 143 46z" />
    <glyph glyph-name="D" unicode="D" horiz-adv-x="611" 
d="M68 0v686h176c188 0 335 -145 335 -339c0 -195 -143 -347 -335 -347h-176zM130 624v-562h101c163 0 280 121 280 285c0 158 -100 277 -265 277h-116z" />
    <glyph glyph-name="E" unicode="E" 
d="M463 0h-389v686h371l12 -62h-321v-245h275v-62h-275v-255h338z" />
    <glyph glyph-name="F" unicode="F" horiz-adv-x="389" 
d="M74 686h292l12 -62h-242v-245h189v-62h-189v-317l-62 -8v694z" />
    <glyph glyph-name="G" unicode="G" horiz-adv-x="667" 
d="M620 372v-295c-78 -60 -163 -93 -249 -93c-189 0 -345 152 -345 364c0 184 138 354 359 354c74 0 170 -38 223 -90l-38 -48c-51 38 -119 76 -184 76c-170 0 -292 -134 -292 -292c0 -165 128 -302 283 -302c69 0 127 26 181 67v197h-220l20 62h262z" />
    <glyph glyph-name="H" unicode="H" horiz-adv-x="667" 
d="M136 0l-62 -8v694l62 16v-323h394v307l62 16v-702l-62 -8v325h-394v-317z" />
    <glyph glyph-name="I" unicode="I" horiz-adv-x="222" 
d="M80 -8v694l62 16v-702z" />
    <glyph glyph-name="J" unicode="J" horiz-adv-x="389" 
d="M13 25l29 61c20 -22 58 -40 92 -40c94 0 118 69 118 150v490l62 16v-488c0 -139 -33 -230 -184 -230c-38 0 -89 14 -117 41z" />
    <glyph glyph-name="K" unicode="K" 
d="M128 0l-62 -8v694l62 16v-334h7l290 334l70 -21l-275 -316l296 -343l-67 -30l-314 364h-7v-356z" />
    <glyph glyph-name="L" unicode="L" horiz-adv-x="389" 
d="M367 0h-293v686l62 16v-640h250z" />
    <glyph glyph-name="M" unicode="M" horiz-adv-x="778" 
d="M391 143l231 559h2l138 -702l-62 -8l-98 508h-2l-208 -516h-2l-216 516h-2l-94 -508l-62 8l140 702h2z" />
    <glyph glyph-name="N" unicode="N" horiz-adv-x="667" 
d="M534 151v535l62 12v-714h-2l-459 554h-2v-538l-62 -8v710h2l459 -551h2z" />
    <glyph glyph-name="O" unicode="O" horiz-adv-x="778" 
d="M389 702c197 0 363 -160 363 -359s-166 -359 -363 -359s-363 160 -363 359s166 359 363 359zM389 640c-160 0 -295 -135 -295 -297s135 -297 295 -297s295 135 295 297s-135 297 -295 297z" />
    <glyph glyph-name="P" unicode="P" horiz-adv-x="444" 
d="M127 230v-230l-62 -8v694h129c139 0 229 -81 229 -228s-90 -228 -249 -228h-47zM127 624v-332h57c111 0 171 64 171 166s-60 166 -151 166h-77z" />
    <glyph glyph-name="Q" unicode="Q" horiz-adv-x="778" 
d="M731 -65l-129 119c-59 -44 -133 -70 -213 -70c-197 0 -363 160 -363 359s166 359 363 359s363 -160 363 -359c0 -96 -38 -182 -100 -246l130 -119zM507 230l96 -88c50 53 81 124 81 201c0 161 -136 297 -295 297s-295 -136 -295 -297s136 -297 295 -297
c61 0 117 19 164 53l-97 89z" />
    <glyph glyph-name="R" unicode="R" horiz-adv-x="444" 
d="M130 0l-62 -8v694h138c114 0 200 -81 200 -201c0 -103 -61 -178 -163 -196l210 -264l-63 -33l-256 335h-4v-327zM130 624v-285h86c82 0 122 61 122 146c0 67 -48 139 -121 139h-87z" />
    <glyph glyph-name="S" unicode="S" 
d="M34 104l48 38c42 -65 92 -96 170 -96c84 0 146 49 146 136c0 192 -352 87 -352 326c0 125 98 194 215 194c68 0 136 -32 181 -82l-38 -46c-43 38 -83 66 -143 66c-80 0 -147 -41 -147 -128c0 -171 352 -81 352 -324c0 -125 -94 -204 -215 -204c-93 0 -169 38 -217 120z
" />
    <glyph glyph-name="T" unicode="T" horiz-adv-x="444" 
d="M253 624v-624l-62 -8v632h-190l14 62h419v-62h-181z" />
    <glyph glyph-name="U" unicode="U" horiz-adv-x="611" 
d="M546 702v-485c0 -146 -93 -233 -240 -233s-240 87 -240 233v469l62 16v-487c0 -73 57 -169 178 -169c112 0 178 89 178 188v452z" />
    <glyph glyph-name="V" unicode="V" horiz-adv-x="611" 
d="M301 138l268 564l65 -16l-332 -702h-2l-318 702l65 16z" />
    <glyph glyph-name="W" unicode="W" horiz-adv-x="833" 
d="M277 -16l-297 702l67 16l231 -558l99 242l-125 300l64 16l98 -232l100 232l58 -16l-121 -300l103 -242l228 558l70 -16l-300 -702h-2l-136 324l-135 -324h-2z" />
    <glyph glyph-name="X" unicode="X" horiz-adv-x="556" 
d="M74 694l208 -277l190 277l56 -28l-208 -302l260 -340l-61 -32l-237 318l-229 -318l-64 27l253 351l-220 296z" />
    <glyph glyph-name="Y" unicode="Y" 
d="M39 702l228 -377l197 377l68 -16l-369 -694l-71 16l139 251l-256 427z" />
    <glyph glyph-name="Z" unicode="Z" horiz-adv-x="556" 
d="M32 624l14 62h481l-399 -624h414l-13 -62h-516l400 624h-381z" />
    <glyph glyph-name="bracketleft" unicode="[" horiz-adv-x="278" 
d="M35 -140v826h164v-48h-111v-730h111v-48h-164z" />
    <glyph glyph-name="backslash" unicode="\" horiz-adv-x="278" 
d="M229 -16l-229 718h50l229 -718h-50z" />
    <glyph glyph-name="bracketright" unicode="]" horiz-adv-x="278" 
d="M243 686v-826h-164v48h111v730h-111v48h164z" />
    <glyph glyph-name="asciicircum" unicode="^" horiz-adv-x="600" 
d="M111 243h-64l224 443h58l224 -443h-63l-191 376z" />
    <glyph glyph-name="underscore" unicode="_" 
d="M0 -75h500v-50h-500v50z" />
    <glyph glyph-name="quoteleft" unicode="&#x2018;" horiz-adv-x="222" 
d="M141 544l-43 -55c-25 16 -54 40 -54 72c0 48 56 103 82 141l34 -19c-14 -24 -55 -70 -55 -99c0 -16 21 -36 36 -40z" />
    <glyph glyph-name="a" unicode="a" horiz-adv-x="444" 
d="M68 416l19 68c46 19 96 30 146 30c78 0 157 -41 157 -127v-387l-58 -12v63h-2c-20 -37 -64 -63 -123 -63c-103 0 -191 66 -191 175c0 111 73 190 184 190c50 0 98 -28 132 -58v84c0 42 -51 77 -118 77c-48 0 -102 -25 -146 -40zM74 163c0 -74 70 -117 137 -117
c71 0 121 53 121 124c0 74 -51 125 -123 125c-77 0 -135 -52 -135 -132z" />
    <glyph glyph-name="b" unicode="b" horiz-adv-x="611" 
d="M54 262v450l58 12v-317c60 67 129 107 217 107c138 0 252 -99 252 -257c0 -146 -113 -269 -261 -269c-168 0 -266 109 -266 274zM112 246c0 -118 96 -200 209 -200c118 0 198 87 202 203c0 120 -85 207 -205 207c-115 0 -206 -87 -206 -210z" />
    <glyph glyph-name="c" unicode="c" 
d="M428 97l36 -45c-39 -38 -114 -64 -180 -64c-145 0 -259 110 -259 268c0 154 129 258 270 258c61 0 122 -25 172 -59l-36 -47c-30 26 -76 48 -139 48c-120 0 -209 -87 -209 -207c0 -108 84 -203 196 -203c55 -1 106 18 149 51z" />
    <glyph glyph-name="d" unicode="d" horiz-adv-x="611" 
d="M494 250c0 130 -94 206 -204 206c-119 0 -199 -103 -199 -203c0 -117 80 -207 201 -207c112 0 202 95 202 204zM494 415v297l58 12v-724l-58 -12v96h-2c-38 -50 -115 -96 -197 -96c-146 0 -262 107 -262 265c0 147 115 261 260 261c82 0 150 -43 199 -99h2z" />
    <glyph glyph-name="e" unicode="e" 
d="M483 397l-382 -234c20 -46 85 -117 178 -117c73 0 136 38 190 83v-70c-44 -44 -124 -71 -186 -71c-155 0 -260 117 -260 269s112 257 262 257c92 0 168 -59 198 -117zM85 215l307 197c-23 25 -61 44 -107 44c-118 0 -204 -87 -204 -200c0 -13 1 -28 4 -41z" />
    <glyph glyph-name="f" unicode="f" horiz-adv-x="278" 
d="M37 502h54v52c0 147 90 170 193 170l15 -58c-136 -1 -150 -25 -150 -124v-40h143v-58h-143v-444l-58 -12v456h-68z" />
    <glyph glyph-name="g" unicode="g" 
d="M237 460c-75 0 -152 -49 -152 -133c0 -82 75 -128 151 -128c74 0 154 46 154 128c0 84 -78 133 -153 133zM2 -62l44 33c47 -54 103 -97 183 -97c81 0 167 51 167 126c0 86 -82 145 -162 145c-48 0 -86 -12 -131 -29l21 66c-52 23 -97 84 -97 142c0 120 96 190 209 190
c20 0 41 -2 61 -2c56 0 111 8 165 19l-17 -59c-16 -5 -27 -7 -44 -7c-9 0 -18 1 -27 3l-2 -2c43 -35 76 -79 76 -138c0 -69 -46 -129 -109 -154c69 -32 115 -87 115 -166c0 -121 -113 -192 -230 -192c-93 0 -172 55 -222 122z" />
    <glyph glyph-name="h" unicode="h" 
d="M112 0l-58 -8v720l58 12v-283h2c27 45 84 73 145 73c97 0 187 -38 187 -177v-337l-58 -8v358c0 73 -47 112 -127 112c-55 0 -149 -40 -149 -137v-325z" />
    <glyph glyph-name="i" unicode="i" horiz-adv-x="222" 
d="M140 0l-58 -12v514l58 12v-514zM106 724l46 -52l-46 -52l-46 52z" />
    <glyph glyph-name="j" unicode="j" horiz-adv-x="222" 
d="M82 502l58 12v-519c0 -127 -70 -179 -192 -179l-21 62c12 -2 24 -4 37 -4c90 0 118 44 118 169v459zM106 724l46 -52l-46 -52l-46 52z" />
    <glyph glyph-name="k" unicode="k" horiz-adv-x="389" 
d="M110 258l226 262l46 -28l-203 -236l227 -230l-37 -34l-259 252v-244l-58 -12v724l58 12v-466z" />
    <glyph glyph-name="l" unicode="l" horiz-adv-x="222" 
d="M140 724v-724l-58 -12v724z" />
    <glyph glyph-name="m" unicode="m" horiz-adv-x="778" 
d="M121 0l-58 -8v510l58 12v-86h2c23 50 87 86 134 86c80 0 110 -27 147 -83c34 51 88 83 143 83c92 0 168 -44 168 -148v-366l-58 -8v362c0 64 -44 108 -106 108c-90 0 -133 -60 -133 -151v-311l-58 -8v362c0 64 -44 108 -106 108c-90 0 -133 -60 -133 -151v-311z" />
    <glyph glyph-name="n" unicode="n" 
d="M112 0l-58 -8v510l58 12v-83h2c27 45 84 83 145 83c97 0 187 -38 187 -177v-337l-58 -8v358c0 73 -47 112 -127 112c-55 0 -149 -40 -149 -137v-325z" />
    <glyph glyph-name="o" unicode="o" horiz-adv-x="556" 
d="M278 514c148 0 257 -128 257 -263s-109 -263 -257 -263s-257 128 -257 263s109 263 257 263zM278 456c-113 0 -199 -98 -199 -205s86 -205 199 -205s199 98 199 205s-86 205 -199 205z" />
    <glyph glyph-name="p" unicode="p" horiz-adv-x="611" 
d="M117 252c0 -130 94 -206 204 -206c119 0 199 103 199 203c0 117 -80 207 -201 207c-112 0 -202 -95 -202 -204zM117 81v-253l-58 -12v686l58 12v-116h2c38 70 115 116 197 116c146 0 262 -123 262 -265c0 -147 -115 -261 -260 -261c-82 0 -152 34 -199 93h-2z" />
    <glyph glyph-name="q" unicode="q" horiz-adv-x="611" 
d="M494 252c0 109 -90 204 -202 204c-121 0 -201 -90 -201 -207c0 -100 80 -203 199 -203c110 0 204 76 204 206zM494 -184v269h-2c-49 -54 -117 -97 -199 -97c-145 0 -260 114 -260 261c0 142 116 265 262 265c82 0 159 -46 197 -109h2v97l58 12v-686z" />
    <glyph glyph-name="r" unicode="r" horiz-adv-x="278" 
d="M111 514v-112h2c36 86 93 112 186 112l-25 -59c-6 1 -15 1 -23 1c-63 0 -140 -78 -140 -204v-252l-58 -12v514z" />
    <glyph glyph-name="s" unicode="s" horiz-adv-x="389" 
d="M17 64l44 37c38 -36 72 -55 126 -55c59 0 108 31 108 93c0 126 -265 53 -265 229c0 92 80 146 166 146c61 0 102 -25 150 -59l-33 -46c-35 26 -74 47 -120 47c-57 0 -105 -28 -105 -85c0 -126 265 -43 265 -229c0 -105 -81 -154 -179 -154c-62 0 -118 30 -157 76z" />
    <glyph glyph-name="t" unicode="t" horiz-adv-x="278" 
d="M72 502v123l58 32v-155h136v-58h-136v-310c0 -61 26 -84 90 -84c16 0 31 0 47 2v-54c-16 -3 -34 -6 -52 -6c-92 0 -143 53 -143 143v309h-67l14 58h53z" />
    <glyph glyph-name="u" unicode="u" 
d="M54 502l58 12v-333c0 -90 36 -141 122 -141c94 0 154 34 154 236v226l58 12v-514l-58 -8v83h-2c-20 -45 -80 -87 -157 -87c-127 0 -175 72 -175 186v328z" />
    <glyph glyph-name="v" unicode="v" horiz-adv-x="444" 
d="M35 514l187 -386l181 386l62 -12l-242 -514h-2l-242 514z" />
    <glyph glyph-name="w" unicode="w" horiz-adv-x="778" 
d="M571 -12l-188 397l-178 -397h-2l-223 514l57 12l167 -383l181 383l187 -383l170 383l56 -12l-225 -514h-2z" />
    <glyph glyph-name="x" unicode="x" horiz-adv-x="444" 
d="M54 514l166 -211l161 211l52 -24l-176 -230l186 -244l-52 -24l-171 219l-162 -219l-55 24l178 244l-179 230z" />
    <glyph glyph-name="y" unicode="y" horiz-adv-x="444" 
d="M201 87l-225 415l57 12l201 -366l176 366l58 -12l-335 -686l-56 12z" />
    <glyph glyph-name="z" unicode="z" 
d="M6 0l357 444h-313l13 58h416l-359 -444h357l-15 -58h-456z" />
    <glyph glyph-name="braceleft" unicode="{" horiz-adv-x="333" 
d="M66 256v42c49 0 68 65 68 135v155c0 71 34 114 84 114h50v-48h-41c-29 0 -40 -42 -40 -88v-148c0 -95 -53 -134 -68 -140v-1c15 -7 68 -45 68 -142v-146c0 -45 11 -88 39 -88h42v-48h-50c-50 0 -84 43 -84 114v153c0 72 -19 136 -68 136z" />
    <glyph glyph-name="bar" unicode="|" horiz-adv-x="222" 
d="M82 750h58v-1000h-58v1000z" />
    <glyph glyph-name="braceright" unicode="}" horiz-adv-x="333" 
d="M267 299v-42c-49 0 -68 -65 -68 -135v-155c0 -71 -34 -114 -84 -114h-50v48h41c29 0 40 42 40 88v148c0 95 53 134 68 140v1c-15 7 -68 45 -68 142v146c0 45 -11 88 -39 88h-42v48h50c50 0 84 -43 84 -114v-153c0 -72 19 -136 68 -136z" />
    <glyph glyph-name="asciitilde" unicode="~" horiz-adv-x="600" 
d="M495 317l36 -42c-30 -42 -63 -86 -125 -86c-40 0 -71 17 -104 34s-67 34 -113 34c-44 0 -68 -37 -84 -72l-36 42c22 42 58 86 125 86c37 0 78 -17 115 -34c38 -17 73 -34 98 -34c40 0 65 37 88 72z" />
    <glyph glyph-name="exclamdown" unicode="&#xa1;" horiz-adv-x="222" 
d="M74 -184l10 547l57 6v-542zM169 485l-52 -59l-52 59l52 59z" />
    <glyph glyph-name="cent" unicode="&#xa2;" 
d="M213 232v266c-62 -6 -102 -78 -102 -135c0 -68 53 -131 102 -131zM214 546v118l43 10v-128c34 -6 70 -18 99 -41l-28 -37c-19 17 -46 26 -71 30v-266c26 0 53 11 75 27c3 -5 26 -36 27 -38c-19 -14 -59 -37 -102 -37v-162l-43 -10v172c-92 14 -157 81 -157 176
c0 105 56 163 157 186z" />
    <glyph glyph-name="sterling" unicode="&#xa3;" 
d="M10 0v62h86v260h-86l21 62h65v73c0 197 86 245 167 245c102 0 150 -91 161 -177l-52 -9c-4 69 -37 134 -109 134c-57 0 -103 -50 -103 -182v-84h126v-62h-126v-260h111c121 0 143 49 152 163l58 -17c1 -122 -62 -208 -187 -208h-284z" />
    <glyph glyph-name="fraction" unicode="&#x2044;" horiz-adv-x="167" 
d="M-167 -16l446 718h55l-445 -718h-56z" />
    <glyph glyph-name="yen" unicode="&#xa5;" 
d="M441 378v-58h-123l-36 -60v-22h139v-58h-139v-180l-64 -8v188h-139v58h139v22l-38 60h-121v58h91l-165 308l68 16l197 -377l197 377l68 -16l-167 -308h93z" />
    <glyph glyph-name="florin" unicode="&#x192;" 
d="M9 -156l10 56c21 -16 46 -32 72 -32c41 0 67 44 87 154l67 362h-104v58h115l21 107c25 125 55 174 140 174c29 0 52 -3 74 -10l-8 -60c-19 8 -37 18 -58 18c-49 0 -71 -25 -91 -131l-20 -98h119v-58h-127l-85 -438c-12 -63 -51 -130 -125 -130c-33 0 -59 10 -87 28z" />
    <glyph glyph-name="section" unicode="&#xa7;" 
d="M417 587l-50 -24c-21 49 -62 91 -117 91c-43 0 -82 -36 -82 -81c0 -107 280 -220 280 -366c0 -71 -51 -119 -122 -121c33 -31 70 -83 70 -131c0 -95 -63 -139 -152 -139c-73 0 -127 40 -159 104l50 29c21 -54 60 -85 120 -85c51 0 83 33 83 84c0 103 -286 256 -286 388
c0 70 47 112 115 121c-32 26 -57 65 -57 108c0 84 57 137 140 137c79 0 135 -45 167 -115zM110 361c0 -40 34 -99 78 -147c45 -48 99 -86 139 -86c33 0 63 30 63 63s-37 89 -84 136c-46 47 -102 88 -138 88c-28 0 -58 -25 -58 -54z" />
    <glyph glyph-name="currency" unicode="&#xa4;" 
d="M1 141l54 57c-36 45 -53 96 -53 151s15 111 55 153l-56 57l40 40l57 -55c42 36 99 54 155 54c53 0 107 -18 149 -54l56 56l42 -42l-55 -54c37 -42 53 -98 53 -153s-16 -109 -52 -154l53 -56l-40 -40l-54 58c-43 -39 -98 -57 -153 -57c-58 0 -112 17 -157 57l-54 -58z
M252 160c104 0 188 88 188 191c0 101 -85 189 -187 189c-106 0 -193 -85 -193 -191c0 -105 88 -189 192 -189z" />
    <glyph glyph-name="quotesingle" unicode="'" horiz-adv-x="222" 
d="M82 415v271h58v-271h-58z" />
    <glyph glyph-name="quotedblleft" unicode="&#x201c;" horiz-adv-x="333" 
d="M116 702l30 -23c-15 -22 -66 -73 -66 -98c0 -15 19 -35 32 -42l-41 -39c-20 15 -48 45 -48 72c0 41 66 101 93 130zM253 702l30 -23c-15 -22 -66 -73 -66 -98c0 -15 19 -35 32 -42l-41 -39c-20 15 -48 45 -48 72c0 41 66 101 93 130z" />
    <glyph glyph-name="guillemotleft" unicode="&#xab;" horiz-adv-x="444" 
d="M74 251l140 139l34 -32l-110 -107l110 -107l-34 -32zM218 251l140 139l34 -32l-110 -107l110 -107l-34 -32z" />
    <glyph glyph-name="guilsinglleft" unicode="&#x2039;" horiz-adv-x="278" 
d="M52 251l140 139l34 -32l-110 -107l110 -107l-34 -32z" />
    <glyph glyph-name="guilsinglright" unicode="&#x203a;" horiz-adv-x="278" 
d="M226 251l-140 -139l-34 32l110 107l-110 107l34 32z" />
    <glyph glyph-name="endash" unicode="&#x2013;" 
d="M0 229v44h500v-44h-500z" />
    <glyph glyph-name="dagger" unicode="&#x2020;" 
d="M239 450l-173 -21v72l173 -21l-25 206h74l-25 -206l171 21v-72l-172 21l26 -185l-24 -364v-85h-27v85l-24 364z" />
    <glyph glyph-name="daggerdbl" unicode="&#x2021;" 
d="M62 87l171 -23l-18 200l18 193l-171 -21v74l171 -23l-18 199h77l-24 -199l169 23v-74l-169 21l21 -193l-21 -200l167 23v-74l-167 22l20 -219h-80l25 219l-171 -22v74z" />
    <glyph glyph-name="periodcentered" unicode="&#xb7;" horiz-adv-x="250" 
d="M124 201c-28 0 -49 23 -49 50s22 50 49 50s51 -23 51 -50c0 -28 -24 -50 -51 -50z" />
    <glyph glyph-name="paragraph" unicode="&#xb6;" horiz-adv-x="600" 
d="M266 -183v496c-118 0 -204 83 -204 184c0 125 83 189 220 189h223v-869h-58v821h-123v-821h-58z" />
    <glyph glyph-name="bullet" unicode="&#x2022;" 
d="M421 343c0 -95 -76 -172 -171 -172c-96 0 -172 76 -172 172c-1 94 75 171 172 171c95 0 171 -77 171 -171z" />
    <glyph glyph-name="quotesinglbase" unicode="&#x201a;" horiz-adv-x="222" 
d="M81 -139l-30 23c14 19 66 73 66 94c0 23 -15 31 -31 45l41 40c21 -22 47 -44 47 -76c0 -35 -70 -102 -93 -126z" />
    <glyph glyph-name="quotedblbase" unicode="&#x201e;" horiz-adv-x="333" 
d="M217 -139l-30 23c13 17 66 76 66 94c0 21 -17 33 -32 45l41 40c21 -22 48 -44 48 -76c0 -35 -70 -101 -93 -126zM80 -139l-30 23c14 19 66 73 66 94c0 23 -15 31 -31 45l41 40c21 -22 47 -44 47 -76c0 -35 -70 -102 -93 -126z" />
    <glyph glyph-name="quotedblright" unicode="&#x201d;" horiz-adv-x="333" 
d="M217 500l-30 23c15 22 66 73 66 98c0 15 -19 35 -32 42l41 39c20 -15 48 -45 48 -72c0 -41 -66 -101 -93 -130zM80 500l-30 23c15 22 66 73 66 98c0 15 -19 35 -32 42l41 39c20 -15 48 -45 48 -72c0 -41 -66 -101 -93 -130z" />
    <glyph glyph-name="guillemotright" unicode="&#xbb;" horiz-adv-x="444" 
d="M370 251l-140 -139l-34 32l110 107l-110 107l34 32zM226 251l-140 -139l-34 32l110 107l-110 107l34 32z" />
    <glyph glyph-name="ellipsis" unicode="&#x2026;" horiz-adv-x="1000" 
d="M115 53l52 59l52 -59l-52 -59zM448 53l52 59l52 -59l-52 -59zM781 53l52 59l52 -59l-52 -59z" />
    <glyph glyph-name="perthousand" unicode="&#x2030;" horiz-adv-x="1000" 
d="M323 158c0 88 70 160 159 160c88 0 160 -72 160 -160c0 -89 -72 -158 -160 -158c-89 0 -159 69 -159 158zM371 158c0 -62 49 -110 111 -110s112 48 112 110s-50 112 -112 112s-111 -50 -111 -112zM679 158c0 88 71 160 160 160c88 0 159 -72 159 -160
c0 -89 -71 -158 -159 -158c-89 0 -160 69 -160 158zM727 158c0 -62 49 -110 112 -110c61 0 111 48 111 110s-50 112 -111 112c-63 0 -112 -50 -112 -112zM488 686h51l-399 -702h-49l344 593l-2 2c-15 -13 -41 -21 -63 -21c-24 0 -41 5 -52 14l-2 -2c5 -12 7 -28 7 -43
c0 -89 -72 -160 -160 -160c-89 0 -159 71 -159 160c0 88 70 159 159 159c38 0 72 -12 100 -35c31 -22 66 -57 109 -57c48 0 92 55 116 92zM52 527c0 -62 48 -112 111 -112c61 0 112 50 112 112s-51 111 -112 111c-63 0 -111 -49 -111 -111z" />
    <glyph glyph-name="questiondown" unicode="&#xbf;" horiz-adv-x="444" 
d="M186 342l48 12v-122c0 -109 -149 -83 -149 -232c0 -69 57 -126 127 -126c85 0 119 40 154 111l50 -27c-38 -84 -97 -142 -194 -142c-108 0 -195 83 -195 192c0 164 159 147 159 267v67zM256 485l-52 -59l-52 59l52 59z" />
    <glyph glyph-name="grave" unicode="`" horiz-adv-x="222" 
d="M174 566h-52l-136 139h77z" />
    <glyph glyph-name="acute" unicode="&#xb4;" horiz-adv-x="222" 
d="M100 566h-52l111 139h77z" />
    <glyph glyph-name="circumflex" unicode="&#x2c6;" horiz-adv-x="222" 
d="M78 705h67l113 -139h-65l-82 102l-82 -102h-64z" />
    <glyph glyph-name="tilde" unicode="&#x2dc;" horiz-adv-x="222" 
d="M-7 578h-37c3 46 38 97 88 97c24 0 48 -11 73 -22c24 -12 48 -23 69 -23c30 0 40 23 44 49h39c-9 -50 -29 -97 -88 -97c-21 0 -46 11 -71 23c-25 11 -49 22 -69 22c-29 0 -43 -23 -48 -49z" />
    <glyph glyph-name="macron" unicode="&#xaf;" horiz-adv-x="222" 
d="M-36 601v48h294v-48h-294z" />
    <glyph glyph-name="breve" unicode="&#x2d8;" horiz-adv-x="222" 
d="M-31 702h38c10 -60 53 -81 109 -81c53 0 90 30 102 81h38c-12 -94 -69 -129 -142 -129c-88 0 -142 54 -145 129z" />
    <glyph glyph-name="dotaccent" unicode="&#x2d9;" horiz-adv-x="222" 
d="M67 625l43 53l45 -53l-45 -52z" />
    <glyph glyph-name="dieresis" unicode="&#xa8;" horiz-adv-x="222" 
d="M-20 625l43 53l45 -53l-45 -52zM154 625l43 53l45 -53l-45 -52z" />
    <glyph glyph-name="ring" unicode="&#x2da;" horiz-adv-x="222" 
d="M111 565c-55 0 -100 44 -100 99s45 100 100 100s100 -45 100 -100s-45 -99 -100 -99zM111 730c-37 0 -66 -30 -66 -66c0 -37 29 -65 66 -65c36 0 66 28 66 65c0 36 -30 66 -66 66z" />
    <glyph glyph-name="cedilla" unicode="&#xb8;" horiz-adv-x="222" 
d="M18 -188l14 30c16 -6 42 -15 59 -15c23 0 71 3 71 41c0 22 -19 43 -46 43c-17 0 -33 0 -48 -6l-15 13l60 82h38l-46 -57l2 -2c9 4 24 6 34 6c47 0 79 -24 79 -77c0 -54 -61 -79 -106 -79c-33 0 -66 6 -96 21z" />
    <glyph glyph-name="hungarumlaut" unicode="&#x2dd;" horiz-adv-x="222" 
d="M38 566h-55l80 139h76zM164 566h-54l80 139h76z" />
    <glyph glyph-name="ogonek" unicode="&#x2db;" horiz-adv-x="222" 
d="M218 -123l14 -30c-32 -36 -85 -56 -142 -56c-52 0 -90 25 -90 72c0 111 134 140 209 157v-9c-57 -22 -151 -75 -151 -129c0 -32 29 -47 57 -47c41 0 73 20 103 42z" />
    <glyph glyph-name="caron" unicode="&#x2c7;" horiz-adv-x="222" 
d="M111 603l82 102h65l-113 -139h-67l-113 139h64z" />
    <glyph glyph-name="emdash" unicode="&#x2014;" horiz-adv-x="1000" 
d="M0 229v44h1000v-44h-1000z" />
    <glyph glyph-name="AE" unicode="&#xc6;" horiz-adv-x="944" 
d="M525 624l-176 -245h183v245h-7zM77 -8l-64 20l477 674h400l12 -62h-308v-245h262v-62h-262v-255h332l-13 -62h-381v317h-224z" />
    <glyph glyph-name="ordfeminine" unicode="&#xaa;" horiz-adv-x="266" 
d="M34 631l13 53c29 12 62 18 94 18c51 0 103 -24 103 -76v-232l-48 -6v37h-2c-12 -23 -31 -37 -69 -37c-67 0 -125 38 -125 104s48 114 120 114c33 0 64 -17 74 -35h2v50c0 13 -23 33 -67 33c-31 0 -66 -10 -95 -23zM58 492c0 -41 32 -56 69 -56c46 0 69 21 69 60
c0 40 -23 62 -70 62c-44 0 -68 -22 -68 -66z" />
    <glyph glyph-name="Lslash" unicode="&#x141;" horiz-adv-x="389" 
d="M252 446l-15 -62l-101 -50v-272h250l-19 -62h-293v303l-58 -30l14 61l44 23v329l62 16v-314z" />
    <glyph glyph-name="Oslash" unicode="&#xd8;" horiz-adv-x="778" 
d="M585 562l-357 -467c47 -31 102 -49 161 -49c160 0 295 135 295 297c0 86 -39 165 -99 219zM188 127l356 467c-45 29 -99 46 -155 46c-160 0 -295 -135 -295 -297c0 -85 36 -161 94 -216zM189 44l-79 -104l-44 27l82 108c-74 64 -122 160 -122 268c0 200 165 359 363 359
c71 0 138 -21 194 -57l65 85l44 -27l-67 -88c77 -66 127 -163 127 -272c0 -200 -165 -359 -363 -359c-74 0 -143 22 -200 60z" />
    <glyph glyph-name="OE" unicode="&#x152;" horiz-adv-x="1000" 
d="M624 553v133h331l10 -62h-279v-245h240v-62h-240v-255h305l-13 -62h-352v133h-4c-65 -87 -157 -149 -265 -149c-206 0 -336 184 -336 359s130 359 336 359c108 0 200 -62 265 -149h2zM357 640c-157 0 -268 -153 -268 -297s111 -297 268 -297s268 153 268 297
s-111 297 -268 297z" />
    <glyph glyph-name="ordmasculine" unicode="&#xba;" horiz-adv-x="334" 
d="M3 545c0 89 68 157 165 157c95 0 163 -68 163 -157s-68 -157 -163 -157c-97 0 -165 68 -165 157zM51 545c0 -58 49 -109 117 -109c66 0 115 51 115 109s-49 109 -115 109c-68 0 -117 -51 -117 -109z" />
    <glyph glyph-name="ae" unicode="&#xe6;" horiz-adv-x="889" 
d="M91 420l21 67c43 16 91 27 137 27c73 0 137 -32 169 -100c58 65 124 100 212 100c83 0 170 -49 210 -123l-388 -227c22 -81 101 -118 172 -118c82 0 156 34 203 83v-74c-68 -48 -130 -67 -213 -67c-82 0 -156 46 -202 112c-45 -78 -98 -112 -189 -112
c-101 0 -186 68 -186 175c0 116 73 190 188 190c54 0 104 -23 143 -61c2 13 3 27 3 40c0 79 -54 124 -133 124c-51 0 -100 -15 -147 -36zM431 218l322 189c-28 30 -83 49 -125 49c-117 0 -199 -91 -199 -206c0 -11 2 -22 2 -32zM231 46c80 0 138 57 138 125
c0 76 -61 124 -134 124c-79 0 -140 -49 -140 -131s65 -118 136 -118z" />
    <glyph glyph-name="dotlessi" unicode="&#x131;" horiz-adv-x="222" 
d="M140 0l-58 -12v514l58 12v-514z" />
    <glyph glyph-name="lslash" unicode="&#x142;" horiz-adv-x="222" 
d="M204 474v-56l-64 -46v-372l-58 -12v346l-64 -42v56l64 42v322l58 12v-296z" />
    <glyph glyph-name="oslash" unicode="&#xf8;" horiz-adv-x="556" 
d="M140 101l234 326c-27 17 -60 29 -96 29c-113 0 -199 -98 -199 -206c0 -60 23 -114 61 -149zM414 398l-234 -325c29 -18 63 -27 101 -27c111 0 196 98 196 204c0 56 -23 109 -63 148zM81 -66l-43 25l68 94c-53 48 -85 119 -85 199c0 139 114 262 257 262
c49 0 93 -16 130 -39l66 92l43 -25l-69 -97c54 -50 87 -122 87 -199c0 -140 -113 -258 -257 -258c-51 0 -96 13 -133 36z" />
    <glyph glyph-name="oe" unicode="&#x153;" horiz-adv-x="1000" 
d="M89 251c0 -120 87 -205 207 -205c116 0 203 87 203 202c0 120 -84 208 -206 208c-112 0 -204 -92 -204 -205zM560 218l322 190c-33 31 -81 48 -128 48c-118 0 -197 -93 -197 -207c0 -10 2 -21 3 -31zM969 391l-389 -227c24 -82 98 -118 178 -118c79 0 138 35 197 85v-74
c-59 -47 -129 -69 -204 -69c-99 0 -179 55 -226 139c-51 -87 -130 -139 -233 -139c-153 0 -261 118 -261 268c0 145 120 258 262 258c100 0 181 -49 231 -135c57 79 119 135 224 135c94 0 175 -38 221 -123z" />
    <glyph glyph-name="germandbls" unicode="&#xdf;" horiz-adv-x="556" 
d="M141 450v-274l24 4c14 -74 66 -134 145 -134c95 0 159 73 159 149c0 108 -91 153 -232 153v54c87 0 173 30 173 129c0 81 -63 134 -139 134c-128 0 -130 -120 -130 -215zM83 356h-75l16 58h59v121c0 111 82 188 197 188c106 0 188 -81 188 -186c0 -62 -25 -110 -74 -146
c74 -30 133 -101 133 -185c0 -124 -95 -218 -218 -218c-70 0 -133 42 -166 100h-2v-88l-58 -12v368z" />
    <glyph glyph-name="onesuperior" unicode="&#xb9;" horiz-adv-x="300" 
d="M213 702v-421l-48 -5v363l-116 -61l-13 26z" />
    <glyph glyph-name="logicalnot" unicode="&#xac;" horiz-adv-x="600" 
d="M493 99v222h-444v58h502v-280h-58z" />
    <glyph glyph-name="mu" unicode="&#xb5;" 
d="M54 502l58 12v-343c0 -80 36 -131 122 -131c100 0 154 42 154 236v226l58 12v-514l-58 -8v83h-2c-20 -45 -80 -87 -157 -87c-54 0 -91 12 -117 35v-195l-58 -12v686z" />
    <glyph glyph-name="trademark" unicode="&#x2122;" horiz-adv-x="990" 
d="M402 686v-54h-132v-358h-58v358h-132v54h322zM526 632v-358h-58v412h95l128 -323l124 323h95v-412h-58v357h-2l-143 -357h-36l-143 358h-2z" />
    <glyph glyph-name="Eth" unicode="&#xd0;" horiz-adv-x="611" 
d="M3 317v62h65v307h176c188 0 335 -145 335 -339c0 -195 -143 -347 -335 -347h-176v317h-65zM296 379v-62h-166v-255h101c163 0 280 121 280 285c0 158 -100 277 -265 277h-116v-245h166z" />
    <glyph glyph-name="onehalf" unicode="&#xbd;" horiz-adv-x="750" 
d="M116 -16l446 718h55l-445 -718h-56zM213 702v-421l-48 -5v363l-116 -61l-13 26zM441 0l138 134c46 45 100 92 100 158c0 56 -37 87 -96 87c-56 0 -93 -31 -93 -84c0 -56 33 -92 91 -101l-26 -29c-66 10 -113 64 -113 126c0 74 60 130 139 130c87 0 146 -58 146 -129
c0 -57 -44 -109 -79 -142l-115 -108h191l-6 -42h-277z" />
    <glyph glyph-name="plusminus" unicode="&#xb1;" horiz-adv-x="600" 
d="M271 330v172h58v-172h222v-58h-222v-175h-58v175h-222v58h222zM49 0v58h502v-58h-502z" />
    <glyph glyph-name="Thorn" unicode="&#xde;" horiz-adv-x="444" 
d="M127 130v-130l-62 -8v694l62 16v-116h67c139 0 229 -81 229 -228c0 -137 -98 -228 -249 -228h-47zM127 524v-332h57c117 0 171 84 171 176s-60 156 -151 156h-77z" />
    <glyph glyph-name="onequarter" unicode="&#xbc;" horiz-adv-x="750" 
d="M727 111h-69v-111l-48 -5v116h-188l236 322v-280h75zM608 315l-121 -162h123v162h-2zM153 -16l446 718h55l-445 -718h-56zM213 702v-421l-48 -5v363l-116 -61l-13 26z" />
    <glyph glyph-name="divide" unicode="&#xf7;" horiz-adv-x="600" 
d="M551 222h-502v58h502v-58zM240 458c0 30 28 60 60 60s60 -30 60 -60s-28 -60 -60 -60s-60 30 -60 60zM240 44c0 30 28 60 60 60s60 -30 60 -60s-28 -60 -60 -60s-60 30 -60 60z" />
    <glyph glyph-name="brokenbar" unicode="&#xa6;" horiz-adv-x="222" 
d="M82 675h58v-350h-58v350zM82 175h58v-350h-58v350z" />
    <glyph glyph-name="degree" unicode="&#xb0;" horiz-adv-x="400" 
d="M104 559c0 -53 37 -95 96 -95s96 42 96 95s-37 95 -96 95s-96 -42 -96 -95zM200 416c-80 0 -144 63 -144 143s64 143 144 143s144 -63 144 -143s-64 -143 -144 -143z" />
    <glyph glyph-name="thorn" unicode="&#xfe;" horiz-adv-x="611" 
d="M117 252c0 -130 94 -206 204 -206c119 0 199 103 199 203c0 117 -80 207 -201 207c-112 0 -202 -95 -202 -204zM117 81v-253l-58 -12v896l58 12v-326h2c38 70 115 116 197 116c146 0 262 -123 262 -265c0 -147 -115 -261 -260 -261c-82 0 -150 37 -199 93h-2z" />
    <glyph glyph-name="threequarters" unicode="&#xbe;" horiz-adv-x="750" 
d="M110 479v35c58 -2 123 11 123 76c0 48 -31 70 -80 70c-42 0 -72 -12 -100 -41l-26 24c40 38 69 59 128 59c68 0 126 -41 126 -107c0 -44 -28 -76 -71 -94c51 -18 83 -58 83 -108c0 -76 -67 -122 -145 -122c-57 0 -108 32 -133 79l34 20c19 -37 53 -57 99 -57
c58 0 97 24 97 83c0 73 -60 83 -135 83zM153 -16l446 718h55l-445 -718h-56zM727 111h-69v-111l-48 -5v116h-188l236 322v-280h75zM608 315l-121 -162h123v162h-2z" />
    <glyph glyph-name="twosuperior" unicode="&#xb2;" horiz-adv-x="300" 
d="M19 281l138 134c46 45 100 92 100 158c0 56 -37 87 -96 87c-56 0 -93 -31 -93 -84c0 -56 33 -92 91 -101l-26 -29c-66 10 -113 64 -113 126c0 74 60 130 139 130c87 0 146 -58 146 -129c0 -57 -44 -109 -79 -142l-115 -108h191l-6 -42h-277z" />
    <glyph glyph-name="registered" unicode="&#xae;" horiz-adv-x="800" 
d="M401 -16c-198 0 -362 159 -362 360c0 199 164 358 362 358c196 0 360 -159 360 -358c0 -201 -164 -360 -360 -360zM703 344c0 173 -130 306 -302 306c-173 0 -304 -133 -304 -306c0 -176 131 -308 304 -308c172 0 302 132 302 308zM319 317v-185h-54v424h162
c96 0 141 -41 141 -120c0 -75 -49 -108 -107 -118l123 -186h-64l-117 185h-84zM416 508h-97v-143h99c74 0 96 27 96 73c0 57 -50 70 -98 70z" />
    <glyph glyph-name="minus" unicode="&#x2212;" horiz-adv-x="600" 
d="M551 222h-502v58h502v-58z" />
    <glyph glyph-name="eth" unicode="&#xf0;" horiz-adv-x="556" 
d="M278 456c-113 0 -199 -98 -199 -205s86 -205 199 -205s199 98 199 205s-86 205 -199 205zM100 693l42 31c38 -19 78 -43 119 -72l159 54l25 -45l-135 -45c122 -96 225 -229 225 -365c0 -145 -113 -263 -257 -263c-152 0 -257 119 -257 263c0 140 114 263 257 263
c24 0 57 -9 68 -12l2 2c-23 29 -57 61 -98 92l-152 -51l-24 44l127 43c-32 23 -66 43 -101 61z" />
    <glyph glyph-name="multiply" unicode="&#xd7;" horiz-adv-x="600" 
d="M259 251l-210 211l40 40l211 -209l211 209l40 -40l-211 -211l211 -211l-40 -40l-211 213l-211 -213l-40 40z" />
    <glyph glyph-name="threesuperior" unicode="&#xb3;" horiz-adv-x="300" 
d="M110 479v35c58 -2 123 11 123 76c0 48 -31 70 -80 70c-42 0 -72 -12 -100 -41l-26 24c40 38 69 59 128 59c68 0 126 -41 126 -107c0 -44 -28 -76 -71 -94c51 -18 83 -58 83 -108c0 -76 -67 -122 -145 -122c-57 0 -108 32 -133 79l34 20c19 -37 53 -57 99 -57
c58 0 97 24 97 83c0 73 -60 83 -135 83z" />
    <glyph glyph-name="copyright" unicode="&#xa9;" horiz-adv-x="800" 
d="M401 702c196 0 360 -159 360 -358c0 -201 -164 -360 -360 -360c-198 0 -362 159 -362 360c0 199 164 358 362 358zM703 344c0 173 -130 306 -302 306c-173 0 -304 -133 -304 -306c0 -176 131 -308 304 -308c172 0 302 132 302 308zM535 272h56
c-19 -93 -89 -154 -179 -154c-131 0 -215 99 -215 226c0 129 79 224 212 224c93 0 170 -53 182 -150h-56c-12 55 -58 98 -125 98c-99 0 -155 -77 -155 -171c0 -91 61 -175 157 -175c66 0 113 45 123 102z" />
    <glyph glyph-name="Aacute" unicode="&#xc1;" horiz-adv-x="667" 
d="M483 270h-294l-139 -286l-66 16l349 702h2l349 -702l-60 -14zM448 332l-114 229l-115 -229h229zM323 726h-52l111 139h77z" />
    <glyph glyph-name="Acircumflex" unicode="&#xc2;" horiz-adv-x="667" 
d="M483 270h-294l-139 -286l-66 16l349 702h2l349 -702l-60 -14zM448 332l-114 229l-115 -229h229zM301 865h67l113 -139h-65l-82 102l-82 -102h-64z" />
    <glyph glyph-name="Adieresis" unicode="&#xc4;" horiz-adv-x="667" 
d="M483 270h-294l-139 -286l-66 16l349 702h2l349 -702l-60 -14zM448 332l-114 229l-115 -229h229zM203 785l43 53l45 -53l-45 -52zM377 785l43 53l45 -53l-45 -52z" />
    <glyph glyph-name="Agrave" unicode="&#xc0;" horiz-adv-x="667" 
d="M483 270h-294l-139 -286l-66 16l349 702h2l349 -702l-60 -14zM448 332l-114 229l-115 -229h229zM397 726h-52l-136 139h77z" />
    <glyph glyph-name="Aring" unicode="&#xc5;" horiz-adv-x="667" 
d="M483 270h-294l-139 -286l-66 16l349 702h2l349 -702l-60 -14zM448 332l-114 229l-115 -229h229zM334 725c-55 0 -100 44 -100 99s45 100 100 100s100 -45 100 -100s-45 -99 -100 -99zM334 890c-37 0 -66 -30 -66 -66c0 -37 29 -65 66 -65c36 0 66 28 66 65
c0 36 -30 66 -66 66z" />
    <glyph glyph-name="Atilde" unicode="&#xc3;" horiz-adv-x="667" 
d="M483 270h-294l-139 -286l-66 16l349 702h2l349 -702l-60 -14zM448 332l-114 229l-115 -229h229zM216 738h-37c3 46 38 97 88 97c24 0 48 -11 73 -22c24 -12 48 -23 69 -23c30 0 40 23 44 49h39c-9 -50 -29 -97 -88 -97c-21 0 -46 11 -71 23c-25 11 -49 22 -69 22
c-29 0 -43 -23 -48 -49z" />
    <glyph glyph-name="Ccedilla" unicode="&#xc7;" horiz-adv-x="556" 
d="M514 92l-9 -76c-39 -18 -86 -32 -129 -32h-5l-33 -41l2 -2c9 4 24 6 34 6c47 0 79 -24 79 -77c0 -54 -61 -79 -106 -79c-33 0 -66 6 -96 21l14 30c16 -6 42 -15 59 -15c23 0 71 3 71 41c0 22 -19 43 -46 43c-17 0 -33 0 -48 -6l-15 13l50 68c-170 20 -310 168 -310 357
c0 204 163 359 350 359c43 0 90 -14 129 -32l9 -76c-28 22 -84 46 -143 46c-158 0 -277 -133 -277 -297s119 -297 277 -297c64 0 115 24 143 46z" />
    <glyph glyph-name="Eacute" unicode="&#xc9;" 
d="M463 0h-389v686h371l12 -62h-321v-245h275v-62h-275v-255h338zM258 726h-52l111 139h77z" />
    <glyph glyph-name="Ecircumflex" unicode="&#xca;" 
d="M463 0h-389v686h371l12 -62h-321v-245h275v-62h-275v-255h338zM236 865h67l113 -139h-65l-82 102l-82 -102h-64z" />
    <glyph glyph-name="Edieresis" unicode="&#xcb;" 
d="M463 0h-389v686h371l12 -62h-321v-245h275v-62h-275v-255h338zM138 785l43 53l45 -53l-45 -52zM312 785l43 53l45 -53l-45 -52z" />
    <glyph glyph-name="Egrave" unicode="&#xc8;" 
d="M463 0h-389v686h371l12 -62h-321v-245h275v-62h-275v-255h338zM332 726h-52l-136 139h77z" />
    <glyph glyph-name="Iacute" unicode="&#xcd;" horiz-adv-x="222" 
d="M80 -8v694l62 16v-702zM100 726h-52l111 139h77z" />
    <glyph glyph-name="Icircumflex" unicode="&#xce;" horiz-adv-x="222" 
d="M80 -8v694l62 16v-702zM78 865h67l113 -139h-65l-82 102l-82 -102h-64z" />
    <glyph glyph-name="Idieresis" unicode="&#xcf;" horiz-adv-x="222" 
d="M80 -8v694l62 16v-702zM-20 785l43 53l45 -53l-45 -52zM154 785l43 53l45 -53l-45 -52z" />
    <glyph glyph-name="Igrave" unicode="&#xcc;" horiz-adv-x="222" 
d="M80 -8v694l62 16v-702zM174 726h-52l-136 139h77z" />
    <glyph glyph-name="Ntilde" unicode="&#xd1;" horiz-adv-x="667" 
d="M534 151v535l62 12v-714h-2l-459 554h-2v-538l-62 -8v710h2l459 -551h2zM216 738h-37c3 46 38 97 88 97c24 0 48 -11 73 -22c24 -12 48 -23 69 -23c30 0 40 23 44 49h39c-9 -50 -29 -97 -88 -97c-21 0 -46 11 -71 23c-25 11 -49 22 -69 22c-29 0 -43 -23 -48 -49z" />
    <glyph glyph-name="Oacute" unicode="&#xd3;" horiz-adv-x="778" 
d="M389 702c197 0 363 -160 363 -359s-166 -359 -363 -359s-363 160 -363 359s166 359 363 359zM389 640c-160 0 -295 -135 -295 -297s135 -297 295 -297s295 135 295 297s-135 297 -295 297zM378 726h-52l111 139h77z" />
    <glyph glyph-name="Ocircumflex" unicode="&#xd4;" horiz-adv-x="778" 
d="M389 702c197 0 363 -160 363 -359s-166 -359 -363 -359s-363 160 -363 359s166 359 363 359zM389 640c-160 0 -295 -135 -295 -297s135 -297 295 -297s295 135 295 297s-135 297 -295 297zM356 865h67l113 -139h-65l-82 102l-82 -102h-64z" />
    <glyph glyph-name="Odieresis" unicode="&#xd6;" horiz-adv-x="778" 
d="M389 702c197 0 363 -160 363 -359s-166 -359 -363 -359s-363 160 -363 359s166 359 363 359zM389 640c-160 0 -295 -135 -295 -297s135 -297 295 -297s295 135 295 297s-135 297 -295 297zM258 785l43 53l45 -53l-45 -52zM432 785l43 53l45 -53l-45 -52z" />
    <glyph glyph-name="Ograve" unicode="&#xd2;" horiz-adv-x="778" 
d="M389 702c197 0 363 -160 363 -359s-166 -359 -363 -359s-363 160 -363 359s166 359 363 359zM389 640c-160 0 -295 -135 -295 -297s135 -297 295 -297s295 135 295 297s-135 297 -295 297zM452 726h-52l-136 139h77z" />
    <glyph glyph-name="Otilde" unicode="&#xd5;" horiz-adv-x="778" 
d="M389 702c197 0 363 -160 363 -359s-166 -359 -363 -359s-363 160 -363 359s166 359 363 359zM389 640c-160 0 -295 -135 -295 -297s135 -297 295 -297s295 135 295 297s-135 297 -295 297zM271 738h-37c3 46 38 97 88 97c24 0 48 -11 73 -22c24 -12 48 -23 69 -23
c30 0 40 23 44 49h39c-9 -50 -29 -97 -88 -97c-21 0 -46 11 -71 23c-25 11 -49 22 -69 22c-29 0 -43 -23 -48 -49z" />
    <glyph glyph-name="Scaron" unicode="&#x160;" 
d="M34 104l48 38c42 -65 92 -96 170 -96c84 0 146 49 146 136c0 192 -352 87 -352 326c0 125 98 194 215 194c68 0 136 -32 181 -82l-38 -46c-43 38 -83 66 -143 66c-80 0 -147 -41 -147 -128c0 -171 352 -81 352 -324c0 -125 -94 -204 -215 -204c-93 0 -169 38 -217 120z
M262 763l82 102h65l-113 -139h-67l-113 139h64z" />
    <glyph glyph-name="Uacute" unicode="&#xda;" horiz-adv-x="611" 
d="M546 702v-485c0 -146 -93 -233 -240 -233s-240 87 -240 233v469l62 16v-487c0 -73 57 -169 178 -169c112 0 178 89 178 188v452zM295 726h-52l111 139h77z" />
    <glyph glyph-name="Ucircumflex" unicode="&#xdb;" horiz-adv-x="611" 
d="M546 702v-485c0 -146 -93 -233 -240 -233s-240 87 -240 233v469l62 16v-487c0 -73 57 -169 178 -169c112 0 178 89 178 188v452zM273 865h67l113 -139h-65l-82 102l-82 -102h-64z" />
    <glyph glyph-name="Udieresis" unicode="&#xdc;" horiz-adv-x="611" 
d="M546 702v-485c0 -146 -93 -233 -240 -233s-240 87 -240 233v469l62 16v-487c0 -73 57 -169 178 -169c112 0 178 89 178 188v452zM175 785l43 53l45 -53l-45 -52zM349 785l43 53l45 -53l-45 -52z" />
    <glyph glyph-name="Ugrave" unicode="&#xd9;" horiz-adv-x="611" 
d="M546 702v-485c0 -146 -93 -233 -240 -233s-240 87 -240 233v469l62 16v-487c0 -73 57 -169 178 -169c112 0 178 89 178 188v452zM369 726h-52l-136 139h77z" />
    <glyph glyph-name="Yacute" unicode="&#xdd;" 
d="M39 702l228 -377l197 377l68 -16l-369 -694l-71 16l139 251l-256 427zM251 726h-52l111 139h77z" />
    <glyph glyph-name="Ydieresis" unicode="&#x178;" 
d="M39 702l228 -377l197 377l68 -16l-369 -694l-71 16l139 251l-256 427zM131 785l43 53l45 -53l-45 -52zM305 785l43 53l45 -53l-45 -52z" />
    <glyph glyph-name="Zcaron" unicode="&#x17d;" horiz-adv-x="556" 
d="M32 624l14 62h481l-399 -624h414l-13 -62h-516l400 624h-381zM290 763l82 102h65l-113 -139h-67l-113 139h64z" />
    <glyph glyph-name="aacute" unicode="&#xe1;" horiz-adv-x="444" 
d="M68 416l19 68c46 19 96 30 146 30c78 0 157 -41 157 -127v-387l-58 -12v63h-2c-20 -37 -64 -63 -123 -63c-103 0 -191 66 -191 175c0 111 73 190 184 190c50 0 98 -28 132 -58v84c0 42 -51 77 -118 77c-48 0 -102 -25 -146 -40zM74 163c0 -74 70 -117 137 -117
c71 0 121 53 121 124c0 74 -51 125 -123 125c-77 0 -135 -52 -135 -132zM218 566h-52l111 139h77z" />
    <glyph glyph-name="acircumflex" unicode="&#xe2;" horiz-adv-x="444" 
d="M68 416l19 68c46 19 96 30 146 30c78 0 157 -41 157 -127v-387l-58 -12v63h-2c-20 -37 -64 -63 -123 -63c-103 0 -191 66 -191 175c0 111 73 190 184 190c50 0 98 -28 132 -58v84c0 42 -51 77 -118 77c-48 0 -102 -25 -146 -40zM74 163c0 -74 70 -117 137 -117
c71 0 121 53 121 124c0 74 -51 125 -123 125c-77 0 -135 -52 -135 -132zM196 705h67l113 -139h-65l-82 102l-82 -102h-64z" />
    <glyph glyph-name="adieresis" unicode="&#xe4;" horiz-adv-x="444" 
d="M68 416l19 68c46 19 96 30 146 30c78 0 157 -41 157 -127v-387l-58 -12v63h-2c-20 -37 -64 -63 -123 -63c-103 0 -191 66 -191 175c0 111 73 190 184 190c50 0 98 -28 132 -58v84c0 42 -51 77 -118 77c-48 0 -102 -25 -146 -40zM74 163c0 -74 70 -117 137 -117
c71 0 121 53 121 124c0 74 -51 125 -123 125c-77 0 -135 -52 -135 -132zM98 625l43 53l45 -53l-45 -52zM272 625l43 53l45 -53l-45 -52z" />
    <glyph glyph-name="agrave" unicode="&#xe0;" horiz-adv-x="444" 
d="M68 416l19 68c46 19 96 30 146 30c78 0 157 -41 157 -127v-387l-58 -12v63h-2c-20 -37 -64 -63 -123 -63c-103 0 -191 66 -191 175c0 111 73 190 184 190c50 0 98 -28 132 -58v84c0 42 -51 77 -118 77c-48 0 -102 -25 -146 -40zM74 163c0 -74 70 -117 137 -117
c71 0 121 53 121 124c0 74 -51 125 -123 125c-77 0 -135 -52 -135 -132zM292 566h-52l-136 139h77z" />
    <glyph glyph-name="aring" unicode="&#xe5;" horiz-adv-x="444" 
d="M68 416l19 68c46 19 96 30 146 30c78 0 157 -41 157 -127v-387l-58 -12v63h-2c-20 -37 -64 -63 -123 -63c-103 0 -191 66 -191 175c0 111 73 190 184 190c50 0 98 -28 132 -58v84c0 42 -51 77 -118 77c-48 0 -102 -25 -146 -40zM74 163c0 -74 70 -117 137 -117
c71 0 121 53 121 124c0 74 -51 125 -123 125c-77 0 -135 -52 -135 -132zM229 565c-55 0 -100 44 -100 99s45 100 100 100s100 -45 100 -100s-45 -99 -100 -99zM229 730c-37 0 -66 -30 -66 -66c0 -37 29 -65 66 -65c36 0 66 28 66 65c0 36 -30 66 -66 66z" />
    <glyph glyph-name="atilde" unicode="&#xe3;" horiz-adv-x="444" 
d="M68 416l19 68c46 19 96 30 146 30c78 0 157 -41 157 -127v-387l-58 -12v63h-2c-20 -37 -64 -63 -123 -63c-103 0 -191 66 -191 175c0 111 73 190 184 190c50 0 98 -28 132 -58v84c0 42 -51 77 -118 77c-48 0 -102 -25 -146 -40zM74 163c0 -74 70 -117 137 -117
c71 0 121 53 121 124c0 74 -51 125 -123 125c-77 0 -135 -52 -135 -132zM111 578h-37c3 46 38 97 88 97c24 0 48 -11 73 -22c24 -12 48 -23 69 -23c30 0 40 23 44 49h39c-9 -50 -29 -97 -88 -97c-21 0 -46 11 -71 23c-25 11 -49 22 -69 22c-29 0 -43 -23 -48 -49z" />
    <glyph glyph-name="ccedilla" unicode="&#xe7;" 
d="M428 97l36 -45c-34 -33 -97 -58 -155 -62l-38 -47l2 -2c9 4 24 6 34 6c47 0 79 -24 79 -77c0 -54 -61 -79 -106 -79c-33 0 -66 6 -96 21l14 30c16 -6 42 -15 59 -15c23 0 71 3 71 41c0 22 -19 43 -46 43c-17 0 -33 0 -48 -6l-15 13l52 71c-139 6 -246 114 -246 267
c0 154 129 258 270 258c61 0 122 -25 172 -59l-36 -47c-30 26 -76 48 -139 48c-120 0 -209 -87 -209 -207c0 -108 84 -203 196 -203c55 -1 106 18 149 51z" />
    <glyph glyph-name="eacute" unicode="&#xe9;" 
d="M483 397l-382 -234c20 -46 85 -117 178 -117c73 0 136 38 190 83v-70c-44 -44 -124 -71 -186 -71c-155 0 -260 117 -260 269s112 257 262 257c92 0 168 -59 198 -117zM85 215l307 197c-23 25 -61 44 -107 44c-118 0 -204 -87 -204 -200c0 -13 1 -28 4 -41zM260 566h-52
l111 139h77z" />
    <glyph glyph-name="ecircumflex" unicode="&#xea;" 
d="M483 397l-382 -234c20 -46 85 -117 178 -117c73 0 136 38 190 83v-70c-44 -44 -124 -71 -186 -71c-155 0 -260 117 -260 269s112 257 262 257c92 0 168 -59 198 -117zM85 215l307 197c-23 25 -61 44 -107 44c-118 0 -204 -87 -204 -200c0 -13 1 -28 4 -41zM238 705h67
l113 -139h-65l-82 102l-82 -102h-64z" />
    <glyph glyph-name="edieresis" unicode="&#xeb;" 
d="M483 397l-382 -234c20 -46 85 -117 178 -117c73 0 136 38 190 83v-70c-44 -44 -124 -71 -186 -71c-155 0 -260 117 -260 269s112 257 262 257c92 0 168 -59 198 -117zM85 215l307 197c-23 25 -61 44 -107 44c-118 0 -204 -87 -204 -200c0 -13 1 -28 4 -41zM140 625l43 53
l45 -53l-45 -52zM314 625l43 53l45 -53l-45 -52z" />
    <glyph glyph-name="egrave" unicode="&#xe8;" 
d="M483 397l-382 -234c20 -46 85 -117 178 -117c73 0 136 38 190 83v-70c-44 -44 -124 -71 -186 -71c-155 0 -260 117 -260 269s112 257 262 257c92 0 168 -59 198 -117zM85 215l307 197c-23 25 -61 44 -107 44c-118 0 -204 -87 -204 -200c0 -13 1 -28 4 -41zM334 566h-52
l-136 139h77z" />
    <glyph glyph-name="iacute" unicode="&#xed;" horiz-adv-x="222" 
d="M140 0l-58 -12v514l58 12v-514zM95 566h-52l111 139h77z" />
    <glyph glyph-name="icircumflex" unicode="&#xee;" horiz-adv-x="222" 
d="M140 0l-58 -12v514l58 12v-514zM73 705h67l113 -139h-65l-82 102l-82 -102h-64z" />
    <glyph glyph-name="idieresis" unicode="&#xef;" horiz-adv-x="222" 
d="M140 0l-58 -12v514l58 12v-514zM-25 625l43 53l45 -53l-45 -52zM149 625l43 53l45 -53l-45 -52z" />
    <glyph glyph-name="igrave" unicode="&#xec;" horiz-adv-x="222" 
d="M140 0l-58 -12v514l58 12v-514zM169 566h-52l-136 139h77z" />
    <glyph glyph-name="ntilde" unicode="&#xf1;" 
d="M112 0l-58 -8v510l58 12v-83h2c27 45 84 83 145 83c97 0 187 -38 187 -177v-337l-58 -8v358c0 73 -47 112 -127 112c-55 0 -149 -40 -149 -137v-325zM132 578h-37c3 46 38 97 88 97c24 0 48 -11 73 -22c24 -12 48 -23 69 -23c30 0 40 23 44 49h39c-9 -50 -29 -97 -88 -97
c-21 0 -46 11 -71 23c-25 11 -49 22 -69 22c-29 0 -43 -23 -48 -49z" />
    <glyph glyph-name="oacute" unicode="&#xf3;" horiz-adv-x="556" 
d="M278 514c148 0 257 -128 257 -263s-109 -263 -257 -263s-257 128 -257 263s109 263 257 263zM278 456c-113 0 -199 -98 -199 -205s86 -205 199 -205s199 98 199 205s-86 205 -199 205zM267 566h-52l111 139h77z" />
    <glyph glyph-name="ocircumflex" unicode="&#xf4;" horiz-adv-x="556" 
d="M278 514c148 0 257 -128 257 -263s-109 -263 -257 -263s-257 128 -257 263s109 263 257 263zM278 456c-113 0 -199 -98 -199 -205s86 -205 199 -205s199 98 199 205s-86 205 -199 205zM245 705h67l113 -139h-65l-82 102l-82 -102h-64z" />
    <glyph glyph-name="odieresis" unicode="&#xf6;" horiz-adv-x="556" 
d="M278 514c148 0 257 -128 257 -263s-109 -263 -257 -263s-257 128 -257 263s109 263 257 263zM278 456c-113 0 -199 -98 -199 -205s86 -205 199 -205s199 98 199 205s-86 205 -199 205zM147 625l43 53l45 -53l-45 -52zM321 625l43 53l45 -53l-45 -52z" />
    <glyph glyph-name="ograve" unicode="&#xf2;" horiz-adv-x="556" 
d="M278 514c148 0 257 -128 257 -263s-109 -263 -257 -263s-257 128 -257 263s109 263 257 263zM278 456c-113 0 -199 -98 -199 -205s86 -205 199 -205s199 98 199 205s-86 205 -199 205zM341 566h-52l-136 139h77z" />
    <glyph glyph-name="otilde" unicode="&#xf5;" horiz-adv-x="556" 
d="M278 514c148 0 257 -128 257 -263s-109 -263 -257 -263s-257 128 -257 263s109 263 257 263zM278 456c-113 0 -199 -98 -199 -205s86 -205 199 -205s199 98 199 205s-86 205 -199 205zM160 578h-37c3 46 38 97 88 97c24 0 48 -11 73 -22c24 -12 48 -23 69 -23
c30 0 40 23 44 49h39c-9 -50 -29 -97 -88 -97c-21 0 -46 11 -71 23c-25 11 -49 22 -69 22c-29 0 -43 -23 -48 -49z" />
    <glyph glyph-name="scaron" unicode="&#x161;" horiz-adv-x="389" 
d="M17 64l44 37c38 -36 72 -55 126 -55c59 0 108 31 108 93c0 126 -265 53 -265 229c0 92 80 146 166 146c61 0 102 -25 150 -59l-33 -46c-35 26 -74 47 -120 47c-57 0 -105 -28 -105 -85c0 -126 265 -43 265 -229c0 -105 -81 -154 -179 -154c-62 0 -118 30 -157 76z
M195 603l82 102h65l-113 -139h-67l-113 139h64z" />
    <glyph glyph-name="uacute" unicode="&#xfa;" 
d="M54 502l58 12v-333c0 -90 36 -141 122 -141c94 0 154 34 154 236v226l58 12v-514l-58 -8v83h-2c-20 -45 -80 -87 -157 -87c-127 0 -175 72 -175 186v328zM239 566h-52l111 139h77z" />
    <glyph glyph-name="ucircumflex" unicode="&#xfb;" 
d="M54 502l58 12v-333c0 -90 36 -141 122 -141c94 0 154 34 154 236v226l58 12v-514l-58 -8v83h-2c-20 -45 -80 -87 -157 -87c-127 0 -175 72 -175 186v328zM217 705h67l113 -139h-65l-82 102l-82 -102h-64z" />
    <glyph glyph-name="udieresis" unicode="&#xfc;" 
d="M54 502l58 12v-333c0 -90 36 -141 122 -141c94 0 154 34 154 236v226l58 12v-514l-58 -8v83h-2c-20 -45 -80 -87 -157 -87c-127 0 -175 72 -175 186v328zM119 625l43 53l45 -53l-45 -52zM293 625l43 53l45 -53l-45 -52z" />
    <glyph glyph-name="ugrave" unicode="&#xf9;" 
d="M54 502l58 12v-333c0 -90 36 -141 122 -141c94 0 154 34 154 236v226l58 12v-514l-58 -8v83h-2c-20 -45 -80 -87 -157 -87c-127 0 -175 72 -175 186v328zM313 566h-52l-136 139h77z" />
    <glyph glyph-name="yacute" unicode="&#xfd;" horiz-adv-x="444" 
d="M201 87l-225 415l57 12l201 -366l176 366l58 -12l-335 -686l-56 12zM211 566h-52l111 139h77z" />
    <glyph glyph-name="ydieresis" unicode="&#xff;" horiz-adv-x="444" 
d="M201 87l-225 415l57 12l201 -366l176 366l58 -12l-335 -686l-56 12zM91 625l43 53l45 -53l-45 -52zM265 625l43 53l45 -53l-45 -52z" />
    <glyph glyph-name="zcaron" unicode="&#x17e;" 
d="M6 0l357 444h-313l13 58h416l-359 -444h357l-15 -58h-456zM250 603l82 102h65l-113 -139h-67l-113 139h64z" />
    <glyph glyph-name="Delta" unicode="&#x2206;" horiz-adv-x="583" 
d="M30 0v43l230 668h66l227 -667v-44h-523zM89 50h401l-137 400c-16 54 -49 135 -61 183h-4c-8 -41 -38 -115 -54 -169z" />
    <glyph glyph-name="Omega" unicode="&#x2126;" horiz-adv-x="648" 
d="M184 51v3c-67 66 -125 176 -125 317c0 202 117 332 268 332c158 0 261 -147 261 -328c0 -147 -63 -262 -126 -321v-3h138v-51h-211v37c72 55 140 172 140 327c-1 130 -67 287 -203 287c-127 0 -207 -127 -207 -288c0 -145 69 -273 139 -326v-37h-211v51h137z" />
    <glyph glyph-name="pi" unicode="&#x3c0;" horiz-adv-x="511" 
d="M485 461h-74v-319c0 -82 6 -117 13 -142h-57c-7 15 -15 55 -15 136v325h-170c-6 -134 -34 -367 -69 -461h-58c36 106 63 322 68 461c-59 0 -84 -5 -102 -12l-10 40c22 14 58 25 126 25h354z" />
    <glyph glyph-name="Euro" unicode="&#x20ac;" 
d="M478 84l-9 -74c-32 -22 -75 -26 -96 -26c-131 0 -232 111 -257 278h-90l10 53h75c0 9 -1 19 -1 28c0 15 1 30 2 44h-86l10 53h83c30 154 130 262 254 262c20 0 66 -4 90 -25l10 -73c-23 22 -61 40 -104 40c-99 0 -165 -102 -184 -204h207l-10 -53h-206
c-2 -15 -2 -30 -2 -44c0 -9 1 -19 1 -28h193l-10 -53h-178c20 -128 90 -220 191 -220c40 0 81 18 107 42z" />
    <glyph glyph-name="estimated" unicode="&#x212e;" horiz-adv-x="866" 
d="M831 333h-646c-3 0 -5 -1 -5 -4v-196c0 -8 3 -16 9 -22c62 -65 148 -106 244 -106c103 0 194 46 257 119h57c-71 -84 -187 -139 -315 -139c-220 0 -399 160 -399 358s179 359 399 359c221 0 399 -161 399 -359v-10zM685 358v197c0 8 -4 17 -10 23
c-63 62 -148 102 -242 102c-95 0 -181 -41 -243 -105c-7 -6 -10 -15 -10 -24v-193c0 -2 2 -6 5 -6h495c4 0 5 4 5 6z" />
    <glyph glyph-name="partialdiff" unicode="&#x2202;" horiz-adv-x="492" 
d="M93 674l-22 44c31 26 77 53 148 53c114 0 226 -111 226 -372c0 -241 -80 -410 -233 -410c-115 0 -171 105 -171 225c0 155 93 253 194 253c83 0 135 -60 150 -90h1c1 11 1 30 1 42c0 183 -80 302 -174 302c-55 0 -94 -25 -120 -47zM216 39h1c90 0 150 125 162 270
c-15 47 -64 108 -136 108c-78 0 -144 -90 -144 -202c0 -105 46 -176 117 -176z" />
    <glyph glyph-name="product" unicode="&#x220f;" horiz-adv-x="629" 
d="M603 637h-98v-733h-58v733h-266v-733h-57v733h-99v55h578v-55z" />
    <glyph glyph-name="summation" unicode="&#x2211;" horiz-adv-x="502" 
d="M481 -96h-459v42l250 351l-239 353v42h433v-52h-352v-4l225 -330l-243 -341v-3h385v-58z" />
    <glyph glyph-name="uni2219" unicode="&#x2219;" horiz-adv-x="250" 
d="M124 201c-28 0 -49 23 -49 50s22 50 49 50s51 -23 51 -50c0 -28 -24 -50 -51 -50z" />
    <glyph glyph-name="radical" unicode="&#x221a;" horiz-adv-x="522" 
d="M517 821l-202 -972h-53l-149 467l-68 -25l-13 38l119 46l120 -374c6 -24 13 -54 16 -72h1c3 18 8 46 12 70l172 822h45z" />
    <glyph glyph-name="infinity" unicode="&#x221e;" horiz-adv-x="724" 
d="M676 289v-1c0 -89 -67 -146 -141 -146c-60 0 -106 38 -172 112c-49 -56 -101 -112 -178 -112c-75 0 -138 62 -138 143c0 83 61 145 145 145c71 0 124 -55 174 -113c50 56 98 113 176 113c81 0 134 -58 134 -141zM191 182h1c62 0 109 60 148 101c-42 52 -87 109 -155 109
c-61 0 -95 -51 -95 -108c1 -57 41 -102 101 -102zM538 392h-2c-63 0 -115 -72 -148 -105c63 -68 99 -105 151 -105c60 0 95 52 95 103c0 68 -41 107 -96 107z" />
    <glyph glyph-name="integral" unicode="&#x222b;" horiz-adv-x="326" 
d="M309 830l-11 -43c-8 6 -21 10 -33 10c-16 0 -35 -7 -47 -23c-24 -30 -32 -81 -32 -180c0 -153 11 -347 11 -504c0 -110 -19 -167 -41 -201c-19 -30 -52 -45 -86 -45c-23 0 -47 8 -57 15l12 44c8 -3 23 -11 41 -11c16 0 33 9 43 25c19 24 33 70 33 174
c0 158 -12 355 -12 509c0 107 12 167 48 206c22 25 52 37 83 37c18 0 39 -7 48 -13z" />
    <glyph glyph-name="approxequal" unicode="&#x2248;" horiz-adv-x="517" 
d="M447 415l27 -22c-23 -48 -60 -89 -118 -89c-37 0 -63 15 -107 40c-30 17 -57 32 -87 32c-43 0 -69 -32 -92 -71l-28 21c28 56 73 90 126 90c45 0 79 -26 104 -40c32 -17 54 -32 88 -32c37 0 62 24 87 71zM447 259l27 -21c-24 -49 -60 -89 -117 -89c-38 0 -64 15 -108 40
c-30 17 -57 32 -87 32c-44 0 -70 -34 -92 -71l-28 21c28 56 73 90 125 90c46 0 80 -26 105 -39c31 -18 54 -33 88 -33c38 0 62 24 87 70z" />
    <glyph glyph-name="notequal" unicode="&#x2260;" horiz-adv-x="517" 
d="M365 484l-42 -93h146v-41h-163l-63 -138h226v-40h-242l-50 -110l-33 15l43 95h-139v40h156l63 138h-219v41h235l49 108z" />
    <glyph glyph-name="lessequal" unicode="&#x2264;" horiz-adv-x="517" 
d="M467 102l-414 214v42l413 214v-51l-368 -182v-2l369 -185v-50zM469 20h-421v42h421v-42z" />
    <glyph glyph-name="greaterequal" unicode="&#x2265;" horiz-adv-x="517" 
d="M54 572l413 -214v-42l-413 -214v50l368 183v3l-368 183v51zM469 20h-421v42h421v-42z" />
    <glyph glyph-name="lozenge" unicode="&#x25ca;" horiz-adv-x="523" 
d="M470 346l-186 -386h-49l-183 386l185 386h49zM415 344l-136 282c-7 17 -14 39 -18 52h-2c-4 -15 -9 -33 -18 -52l-135 -279l137 -284c9 -20 14 -39 16 -50h4c3 12 10 36 16 49z" />
    <glyph glyph-name="uni02C9" unicode="&#x2c9;" horiz-adv-x="222" 
d="M-36 601v48h294v-48h-294z" />
    <glyph glyph-name="uni00AD" unicode="&#xad;" horiz-adv-x="333" 
d="M294 278v-54h-255v54h255z" />
    <glyph glyph-name="uni03A9" unicode="&#x3a9;" horiz-adv-x="648" 
d="M184 51v3c-67 66 -125 176 -125 317c0 202 117 332 268 332c158 0 261 -147 261 -328c0 -147 -63 -262 -126 -321v-3h138v-51h-211v37c72 55 140 172 140 327c-1 130 -67 287 -203 287c-127 0 -207 -127 -207 -288c0 -145 69 -273 139 -326v-37h-211v51h137z" />
    <glyph glyph-name="uni00A0" unicode="&#xa0;" horiz-adv-x="250" 
 />
    <glyph glyph-name="afii61289" unicode="&#x2113;" horiz-adv-x="437" 
d="M384 128l30 -24c-37 -73 -92 -115 -164 -115c-106 0 -146 87 -148 191v14c-17 -14 -36 -31 -54 -47l-19 36c26 24 51 45 72 68v276c0 179 71 232 136 232c73 0 109 -66 109 -154c0 -126 -76 -247 -189 -366v-33c1 -124 48 -169 104 -169c58 0 101 49 123 91zM157 532
v-230c82 96 147 197 147 301c0 66 -19 109 -68 109c-37 0 -79 -47 -79 -180z" />
    <glyph glyph-name="uni03BC" unicode="&#x3bc;" 
d="M54 502l58 12v-343c0 -80 36 -131 122 -131c100 0 154 42 154 236v226l58 12v-514l-58 -8v83h-2c-20 -45 -80 -87 -157 -87c-54 0 -91 12 -117 35v-195l-58 -12v686z" />
    <glyph glyph-name="uni2215" unicode="&#x2215;" horiz-adv-x="167" 
d="M-167 -16l446 718h55l-445 -718h-56z" />
    </font>
</defs>
</svg>
